<svg width="112" height="28" viewBox="0 0 112 28" fill="none" xmlns="http://www.w3.org/2000/svg">
<path d="M47.78 16.22C47.14 19.32 45.02 21.32 41.64 21.32C37.44 21.32 34.84 18.12 34.84 13.92C34.84 9.72 37.44 6.48 41.64 6.48C44.88 6.48 47.04 8.4 47.7 11.34L44.68 11.5C44.32 9.96 43.24 8.96 41.58 8.96C39 8.96 37.84 11.14 37.84 13.92C37.84 16.68 39.02 18.84 41.58 18.84C43.32 18.84 44.4 17.72 44.72 16.06L47.78 16.22ZM48.9317 10.4H51.6917L54.3917 18L56.9917 10.4H59.7317L55.5517 22.04C55.0717 23.4 54.1717 24 52.6717 24H50.8717V21.86H52.1317C52.7717 21.86 53.0917 21.68 53.2917 21.18L53.5717 20.5H52.7517L48.9317 10.4ZM67.2455 13.82C67.0655 12.82 66.1855 12.2 65.2455 12.2C64.3055 12.2 63.5855 12.7 63.6255 13.48C63.6455 14.3 64.6055 14.64 65.6255 14.82C68.6655 15.3 70.2255 16.1 70.2255 18.12C70.2255 20.24 68.2055 21.24 65.5855 21.24C62.5455 21.24 60.5655 19.9 60.4055 17.64L63.3055 17.5C63.5055 18.54 64.2655 19.16 65.5055 19.16C66.3055 19.16 67.2855 18.86 67.2655 18.06C67.2455 17.12 66.1855 16.96 65.1455 16.74C62.3255 16.2 60.6455 15.48 60.6455 13.52C60.6455 11.4 62.4055 10.14 65.3655 10.14C67.9855 10.14 69.7855 11.5 70.1255 13.7L67.2455 13.82ZM73.1234 8H76.0034V10.4H78.8034V12.56H76.0034V17.6C76.0034 18.4 76.4234 18.82 77.1834 18.82H78.8234V21H76.6234C74.3234 21 73.1234 19.86 73.1234 17.6V12.56H71.4234V10.4H73.1234V8ZM85.2777 21.24C82.0177 21.24 79.8977 19.06 79.8977 15.7C79.8977 12.34 82.0177 10.16 85.2777 10.16C88.5177 10.16 90.6577 12.34 90.6577 15.7C90.6577 19.06 88.5177 21.24 85.2777 21.24ZM82.8577 15.7C82.8577 17.78 83.7377 18.98 85.2777 18.98C86.8177 18.98 87.6977 17.78 87.6977 15.7C87.6977 13.62 86.8177 12.42 85.2777 12.42C83.7377 12.42 82.8577 13.62 82.8577 15.7ZM92.6656 10.4H95.3856L95.4456 12.52C95.8456 11.1 96.6456 10.4 98.0056 10.4H98.9856V12.58H97.9856C96.2456 12.58 95.5456 13.4 95.5456 15.06V21H92.6656V10.4ZM99.7809 15.7C99.7809 12.34 101.901 10.16 105.141 10.16C108.021 10.16 110.261 12.12 110.261 15.88L110.281 16.46H102.781C102.881 18.08 103.741 19.06 105.141 19.06C106.041 19.06 106.861 18.54 107.221 17.7L110.121 17.92C109.481 19.96 107.541 21.24 105.141 21.24C101.901 21.24 99.7809 19.06 99.7809 15.7ZM102.801 14.66H107.341C107.161 13 106.221 12.34 105.141 12.34C103.841 12.34 102.981 13.22 102.801 14.66Z" fill="#0A0A0A" style="fill:#0A0A0A;fill:color(display-p3 0.0392 0.0392 0.0392);fill-opacity:1;"/>
<path fill-rule="evenodd" clip-rule="evenodd" d="M25.7518 2.43973C24.6247 7.8973 19.7915 12 14 12C8.20854 12 3.37533 7.8973 2.24818 2.43973C0.856373 3.87917 0 5.83958 0 8V20C0 24.4183 3.58172 28 8 28H20C24.4183 28 28 24.4183 28 20V8C28 5.83958 27.1436 3.87918 25.7518 2.43973ZM6.00386 0.251043C6.64194 0.0871561 7.31079 0 8 0H20C20.6892 0 21.3581 0.0871561 21.9961 0.251043C21.8635 4.55316 18.3343 8 14 8C9.66571 8 6.13648 4.55316 6.00386 0.251043Z" fill="#4F46E5" style="fill:#4F46E5;fill:color(display-p3 0.3098 0.2745 0.8980);fill-opacity:1;"/>
</svg>
